<svg viewBox="0 0 400 200" xmlns="http://www.w3.org/2000/svg">
  <defs>
    <linearGradient id="skyGradient" x1="0%" y1="0%" x2="0%" y2="100%">
      <stop offset="0%" style="stop-color:#87CEEB;stop-opacity:1" />
      <stop offset="100%" style="stop-color:#E0F6FF;stop-opacity:1" />
    </linearGradient>
    <linearGradient id="oceanGradient" x1="0%" y1="0%" x2="0%" y2="100%">
      <stop offset="0%" style="stop-color:#4682B4;stop-opacity:1" />
      <stop offset="100%" style="stop-color:#1E90FF;stop-opacity:1" />
    </linearGradient>
    <linearGradient id="grassGradient" x1="0%" y1="0%" x2="0%" y2="100%">
      <stop offset="0%" style="stop-color:#90EE90;stop-opacity:1" />
      <stop offset="100%" style="stop-color:#228B22;stop-opacity:1" />
    </linearGradient>
  </defs>
  
  <!-- Sky background -->
  <rect width="400" height="120" fill="url(#skyGradient)" />
  
  <!-- Ocean/water -->
  <rect y="120" width="400" height="50" fill="url(#oceanGradient)" />
  
  <!-- Ground -->
  <rect y="170" width="400" height="30" fill="url(#grassGradient)" />
  
  <!-- Mountains in background -->
  <polygon points="0,120 80,80 160,120" fill="#8B7355" opacity="0.6"/>
  <polygon points="120,120 200,70 280,120" fill="#A0522D" opacity="0.5"/>
  <polygon points="240,120 320,85 400,120" fill="#8B7355" opacity="0.4"/>
  
  <!-- Trees (representing tree planting) -->
  <g transform="translate(60,140)">
    <rect x="-2" y="15" width="4" height="15" fill="#8B4513"/>
    <circle cx="0" cy="12" r="12" fill="#228B22"/>
    <circle cx="-6" cy="8" r="8" fill="#32CD32"/>
    <circle cx="6" cy="8" r="8" fill="#32CD32"/>
  </g>
  
  <g transform="translate(120,135)">
    <rect x="-3" y="20" width="6" height="20" fill="#8B4513"/>
    <circle cx="0" cy="15" r="15" fill="#228B22"/>
    <circle cx="-8" cy="10" r="10" fill="#32CD32"/>
    <circle cx="8" cy="10" r="10" fill="#32CD32"/>
  </g>
  
  <!-- Ocean cleanup elements -->
  <g transform="translate(200,135)">
    <!-- Cleanup boat -->
    <ellipse cx="0" cy="0" rx="25" ry="8" fill="#4169E1"/>
    <rect x="-20" y="-8" width="40" height="4" fill="#FFD700"/>
    <!-- Mast -->
    <line x1="0" y1="-8" x2="0" y2="-25" stroke="#8B4513" stroke-width="2"/>
    <!-- Flag -->
    <polygon points="0,-25 15,-20 0,-15" fill="#FF6347"/>
  </g>
  
  <!-- Waste being cleaned -->
  <circle cx="250" cy="145" r="3" fill="#FF4500" opacity="0.7"/>
  <circle cx="180" cy="148" r="2" fill="#FF6347" opacity="0.7"/>
  <rect x="220" y="147" width="4" height="2" fill="#8B4513" opacity="0.7"/>
  
  <!-- Carbon capture facility (simplified) -->
  <g transform="translate(320,150)">
    <rect x="-15" y="0" width="30" height="25" fill="#708090"/>
    <rect x="-12" y="3" width="8" height="8" fill="#4169E1" opacity="0.6"/>
    <rect x="4" y="3" width="8" height="8" fill="#4169E1" opacity="0.6"/>
    <!-- Smokestack with clean air -->
    <rect x="-2" y="-10" width="4" height="10" fill="#696969"/>
    <circle cx="0" cy="-15" r="3" fill="#E6E6FA" opacity="0.8"/>
    <circle cx="-3" cy="-18" r="2" fill="#E6E6FA" opacity="0.6"/>
    <circle cx="3" cy="-18" r="2" fill="#E6E6FA" opacity="0.6"/>
  </g>
  
  <!-- Donation/helping hands symbol -->
  <g transform="translate(280,110)">
    <!-- Hands giving/helping -->
    <ellipse cx="0" cy="0" rx="8" ry="12" fill="#F4A460" transform="rotate(-20)"/>
    <ellipse cx="12" cy="5" rx="8" ry="12" fill="#F4A460" transform="rotate(20)"/>
    <!-- Heart symbol for donation -->
    <path d="M6,8 C6,6 8,4 10,4 C12,4 14,6 14,8 C14,12 10,16 10,16 S6,12 6,8 Z" fill="#FF69B4"/>
  </g>
  
  <!-- Clouds -->
  <g fill="white" opacity="0.8">
    <circle cx="50" cy="40" r="12"/>
    <circle cx="65" cy="35" r="15"/>
    <circle cx="80" cy="40" r="12"/>
    
    <circle cx="300" cy="30" r="10"/>
    <circle cx="315" cy="25" r="12"/>
    <circle cx="330" cy="30" r="10"/>
  </g>
  
  <!-- Sun -->
  <circle cx="350" cy="50" r="20" fill="#FFD700" opacity="0.9"/>
  <g stroke="#FFD700" stroke-width="2" opacity="0.7">
    <line x1="350" y1="15" x2="350" y2="25"/>
    <line x1="350" y1="75" x2="350" y2="85"/>
    <line x1="315" y1="50" x2="325" y2="50"/>
    <line x1="375" y1="50" x2="385" y2="50"/>
    <line x1="327" y1="27" x2="334" y2="34"/>
    <line x1="366" y1="66" x2="373" y2="73"/>
    <line x1="327" y1="73" x2="334" y2="66"/>
    <line x1="366" y1="34" x2="373" y2="27"/>
  </g>
</svg>